<svg width="35" height="35" viewBox="0 0 35 35" fill="none" xmlns="http://www.w3.org/2000/svg">
<path fill-rule="evenodd" clip-rule="evenodd" d="M17.4998 9.11462C18.1039 9.11462 18.5936 9.60431 18.5936 10.2084L18.5936 24.7917C18.5936 25.3958 18.1039 25.8855 17.4998 25.8855C16.8958 25.8855 16.4061 25.3958 16.4061 24.7917L16.4061 10.2084C16.4061 9.60431 16.8958 9.11462 17.4998 9.11462ZM23.3332 13.4896C23.9372 13.4896 24.4269 13.9793 24.4269 14.5834V20.4167C24.4269 21.0208 23.9372 21.5105 23.3332 21.5105C22.7291 21.5105 22.2394 21.0208 22.2394 20.4167V14.5834C22.2394 13.9793 22.7291 13.4896 23.3332 13.4896ZM12.7603 14.5834C12.7603 13.9793 12.2706 13.4896 11.6665 13.4896C11.0624 13.4896 10.5728 13.9793 10.5728 14.5834L10.5728 20.4167C10.5728 21.0208 11.0624 21.5105 11.6665 21.5105C12.2706 21.5105 12.7603 21.0208 12.7603 20.4167L12.7603 14.5834Z" fill="white"/>
</svg>
