<?xml version="1.0" encoding="UTF-8"?>
<!DOCTYPE svg PUBLIC "-//W3C//DTD SVG 1.1//EN" "http://www.w3.org/Graphics/SVG/1.1/DTD/svg11.dtd">
<svg xmlns="http://www.w3.org/2000/svg" version="1.1" width="600px" height="444px" style="shape-rendering:geometricPrecision; text-rendering:geometricPrecision; image-rendering:optimizeQuality; fill-rule:evenodd; clip-rule:evenodd" xmlns:xlink="http://www.w3.org/1999/xlink">
<g><path style="opacity:0.881" fill="#0b0b0b" d="M 57.5,-0.5 C 63.5,-0.5 69.5,-0.5 75.5,-0.5C 105.423,7.91266 120.423,27.9127 120.5,59.5C 120.18,74.7808 117.013,89.4474 111,103.5C 100.555,126.605 86.2219,146.939 68,164.5C 67.4092,165.483 67.7425,166.15 69,166.5C 107.794,179.545 143.627,173.712 176.5,149C 199.239,128.45 208.739,102.95 205,72.5C 203.435,68.6002 201.435,64.9335 199,61.5C 197.672,56.522 196.505,51.522 195.5,46.5C 200.944,48.0977 205.11,51.431 208,56.5C 211.983,76.6989 211.316,96.6989 206,116.5C 204.107,121.287 201.94,125.953 199.5,130.5C 199.833,130.833 200.167,131.167 200.5,131.5C 224.427,111.406 240.927,86.4058 250,56.5C 250.941,51.8528 251.775,47.1862 252.5,42.5C 248.953,31.9362 248.62,21.2695 251.5,10.5C 256.202,16.092 258.869,22.592 259.5,30C 255.802,71.0619 238.802,105.395 208.5,133C 229.255,129.306 242.088,137.806 247,158.5C 248.093,185.809 236.26,205.309 211.5,217C 206.246,218.647 200.913,219.98 195.5,221C 230.045,241.097 263.711,262.43 296.5,285C 313.194,293.509 330.861,298.676 349.5,300.5C 381.577,298.028 402.41,281.362 412,250.5C 416.614,232.127 413.614,215.127 403,199.5C 392.12,186.156 378.953,183.322 363.5,191C 342.053,204.661 336.887,222.828 348,245.5C 349.695,248.695 352.195,251.028 355.5,252.5C 356.798,249.147 358.465,245.98 360.5,243C 370.42,238.558 375.42,241.891 375.5,253C 375.111,260.057 371.277,263.89 364,264.5C 353.663,261.84 345.996,255.84 341,246.5C 339.173,253.659 335.673,259.826 330.5,265C 315.447,271.395 304.947,266.895 299,251.5C 298.333,247.5 298.333,243.5 299,239.5C 305.288,234.57 309.788,235.903 312.5,243.5C 310.201,247.194 307.034,248.194 303,246.5C 302.416,249.257 302.75,251.923 304,254.5C 317.382,268.088 327.715,266.088 335,248.5C 336.977,238.948 337.977,229.281 338,219.5C 345.785,192.364 363.618,180.53 391.5,184C 395.577,185.787 399.41,187.954 403,190.5C 405.035,184.298 409.202,180.298 415.5,178.5C 414.238,180.299 412.405,182.299 410,184.5C 408.578,187.03 408.245,189.697 409,192.5C 412.29,195.114 414.79,198.281 416.5,202C 415.833,203.333 415.167,204.667 414.5,206C 418.624,213.989 421.124,222.489 422,231.5C 426.278,209.886 430.278,188.22 434,166.5C 441.127,139.387 457.627,120.554 483.5,110C 503.586,103.586 519.753,108.753 532,125.5C 540.267,145.157 537.101,162.657 522.5,178C 510.099,186.719 497.099,187.719 483.5,181C 469.604,169.912 465.771,156.079 472,139.5C 481.297,123.551 494.13,120.051 510.5,129C 521.654,139.547 523.321,151.38 515.5,164.5C 509.512,170.134 502.845,170.967 495.5,167C 490.15,163.322 486.817,158.322 485.5,152C 487.227,143.302 492.227,140.635 500.5,144C 505.371,149.337 505.371,154.837 500.5,160.5C 502.441,163.334 505.107,164.168 508.5,163C 515.056,159.021 517.556,153.187 516,145.5C 511.341,130.754 501.508,125.254 486.5,129C 473.856,137.255 469.689,148.755 474,163.5C 483.787,181.651 497.953,186.151 516.5,177C 529.45,166.489 534.283,152.989 531,136.5C 524.398,118.608 511.565,111.108 492.5,114C 470.292,120.523 454.459,134.356 445,155.5C 442.39,162.329 440.39,169.329 439,176.5C 437.082,190.178 435.082,203.845 433,217.5C 430.781,228.706 428.115,239.706 425,250.5C 433.525,243.811 442.692,238.145 452.5,233.5C 454.468,228.23 456.968,223.23 460,218.5C 465.051,213.726 470.551,209.56 476.5,206C 482.078,201.093 486.911,195.593 491,189.5C 493.257,201.077 490.757,211.577 483.5,221C 496.705,218.901 510.039,217.401 523.5,216.5C 548.393,215.735 569.56,224.068 587,241.5C 593.368,249.565 597.535,258.565 599.5,268.5C 599.5,275.833 599.5,283.167 599.5,290.5C 595.725,309.442 585.058,322.942 567.5,331C 541.668,337.832 522.835,329.332 511,305.5C 504.936,287.132 508.769,271.299 522.5,258C 539.905,245.704 555.739,247.537 570,263.5C 580.093,280.583 578.26,296.083 564.5,310C 556.552,314.67 548.552,315.003 540.5,311C 532.715,301.804 530.215,291.304 533,279.5C 535.425,273.205 539.925,271.038 546.5,273C 552.887,276.284 555.053,281.451 553,288.5C 550.635,292.851 546.968,295.184 542,295.5C 540.435,301.201 542.268,305.367 547.5,308C 557.244,309.711 564.411,306.211 569,297.5C 575.518,280.054 571.018,266.221 555.5,256C 539.125,251.128 526.292,255.962 517,270.5C 507.242,295.233 514.075,313.733 537.5,326C 561.035,332.149 578.202,324.316 589,302.5C 599.036,275.291 592.536,253.124 569.5,236C 550.482,226.164 530.482,222.83 509.5,226C 483.353,229.412 459.353,238.412 437.5,253C 447.458,254.811 455.792,259.478 462.5,267C 457.07,264.221 451.236,262.054 445,260.5C 440.13,260.895 435.63,262.395 431.5,265C 427.708,270.749 424.042,276.582 420.5,282.5C 417.322,284.586 413.988,284.92 410.5,283.5C 402.253,295.417 391.586,304.417 378.5,310.5C 382.7,316.609 385.2,323.276 386,330.5C 383.274,325.107 379.774,320.274 375.5,316C 373.412,314.97 371.245,314.137 369,313.5C 358.641,315.826 348.141,316.993 337.5,317C 370.367,343.874 402.2,372.041 433,401.5C 441.442,415.391 449.609,429.391 457.5,443.5C 456.167,443.5 454.833,443.5 453.5,443.5C 449.709,442.047 445.709,440.881 441.5,440C 434.919,430.84 428.586,421.506 422.5,412C 377.578,372.902 330.245,337.069 280.5,304.5C 280.167,304.833 279.833,305.167 279.5,305.5C 280.691,308.838 281.525,312.172 282,315.5C 269.745,310.246 261.245,301.413 256.5,289C 229.965,272.896 202.632,258.062 174.5,244.5C 173.067,248.196 173.4,251.696 175.5,255C 166.755,253.085 161.421,247.585 159.5,238.5C 156.206,235.845 152.539,234.345 148.5,234C 167.659,250.652 178.326,271.652 180.5,297C 178.063,330.267 160.397,349.1 127.5,353.5C 99.1815,350.347 83.8482,334.514 81.5,306C 81.9477,291.104 87.9477,279.104 99.5,270C 114.312,262.122 128.646,262.789 142.5,272C 154.176,284.788 156.676,299.288 150,315.5C 141.862,329.659 130.029,334.493 114.5,330C 104.594,324.623 101.094,316.456 104,305.5C 106.061,297.868 110.228,291.701 116.5,287C 128.638,285.469 133.472,290.636 131,302.5C 128.232,308.172 123.732,310.006 117.5,308C 115.945,306.711 114.279,306.044 112.5,306C 107.106,312.542 107.772,318.542 114.5,324C 128.666,330.015 139.499,326.182 147,312.5C 152.702,299.486 151.035,287.486 142,276.5C 127.223,265.101 112.39,265.268 97.5,277C 84.6698,293.11 83.1698,310.276 93,328.5C 109.073,349.114 128.573,352.948 151.5,340C 172.523,322.748 178.357,301.248 169,275.5C 157.606,252.773 140.773,235.273 118.5,223C 91.3673,209.55 62.7006,202.05 32.5,200.5C 32.6399,198.876 31.9733,197.71 30.5,197C 26.8539,196.644 23.3539,195.811 20,194.5C 14.4442,180.386 7.61087,167.053 -0.5,154.5C -0.5,153.5 -0.5,152.5 -0.5,151.5C 18.0624,154.012 36.3957,157.679 54.5,162.5C 80.0105,142.187 98.1772,116.521 109,85.5C 115.79,66.0341 114.79,47.0341 106,28.5C 88.1444,3.99528 65.9778,-0.83805 39.5,14C 20.7822,32.6739 18.2822,53.1739 32,75.5C 48.689,92.4697 65.689,92.8031 83,76.5C 92.9226,63.2364 92.9226,49.903 83,36.5C 75.2082,27.8448 65.7082,25.0114 54.5,28C 47.68,30.9863 43.68,36.1529 42.5,43.5C 44.5855,53.9228 48.9188,55.4228 55.5,48C 64.9458,43.8909 70.6124,47.0575 72.5,57.5C 71.5809,63.9106 68.0809,67.9106 62,69.5C 51.9806,67.6487 44.3139,62.3153 39,53.5C 35.0014,38.6638 40.168,28.4972 54.5,23C 72.8051,20.9 85.3051,28.4 92,45.5C 96.5125,70.644 86.3458,86.144 61.5,92C 40.117,92.3033 26.2837,82.1366 20,61.5C 14.7808,35.4462 23.6141,15.9462 46.5,3C 50.2541,1.69123 53.9207,0.524565 57.5,-0.5 Z M 199.5,141.5 C 197.618,145.981 197.118,150.647 198,155.5C 198.685,158.057 200.185,159.891 202.5,161C 215.524,162.974 220.691,157.474 218,144.5C 214.385,140.713 215.385,138.713 221,138.5C 237.416,143.278 244.75,154.278 243,171.5C 235.903,202.636 216.403,217.136 184.5,215C 163.411,204.122 142.078,193.789 120.5,184C 150.086,175.512 176.419,161.345 199.5,141.5 Z"/></g>
</svg>
